<?xml version="1.0" encoding="utf-8"?>
<!DOCTYPE svg PUBLIC "-//W3C//DTD SVG 1.0//EN" "http://www.w3.org/TR/2001/REC-SVG-20010904/DTD/svg10.dtd">
<svg version="1.0" xmlns="http://www.w3.org/2000/svg" width="1024px" height="1024px" viewBox="0 0 1024 1024" preserveAspectRatio="xMidYMid meet">
 <g fill="#fb7185">
  <path d="M343.2 870 c-1.8 -1.1 -4 -3.6 -4.8 -5.5 -1.6 -3.8 -1.9 -16.5 -0.4 -16.5 0.5 0 0.7 -0.7 0.4 -1.5 -0.7 -1.7 2.6 -17.6 3.5 -17.1 0.3 0.2 0.6 -0.8 0.7 -2.2 0.3 -9.9 23.9 -53.7 27.7 -51.6 0.7 0.4 0.9 0.4 0.5 -0.1 -1 -1.1 1.1 -4.7 2.3 -4 0.5 0.4 0.8 0.1 0.7 -0.7 -0.2 -0.7 0.3 -1.2 1 -1 0.8 0.1 1 -0.2 0.7 -0.8 -2 -3.2 44.5 -44.3 47.9 -42.3 0.6 0.3 0.7 0.2 0.3 -0.2 -0.4 -0.5 2.3 -2.8 6 -5.2 6.9 -4.4 9 -5.2 7.7 -3.1 -0.4 0.7 -0.3 0.8 0.5 0.4 0.6 -0.4 0.9 -1.1 0.6 -1.6 -0.8 -1.2 17.3 -10.3 18.7 -9.4 0.6 0.4 0.8 0.3 0.5 -0.3 -0.4 -0.6 2 -2.2 5.8 -3.9 3.6 -1.5 6.4 -3.2 6.2 -3.8 -0.2 -0.6 -3.6 -2.4 -7.6 -4 -5.2 -2.1 -6.9 -3.2 -5.9 -3.8 0.9 -0.7 0.8 -0.8 -0.6 -0.4 -1.9 0.6 -19.8 -8.2 -19.1 -9.4 0.2 -0.4 -0.1 -0.7 -0.8 -0.7 -0.7 0 -4.1 -1.7 -7.6 -3.8 -4.8 -2.8 -6 -4 -5 -4.7 1.1 -0.8 1 -0.8 -0.4 -0.4 -2.6 0.8 -19.3 -10.7 -18.2 -12.5 0.3 -0.4 0 -1.1 -0.6 -1.5 -0.8 -0.4 -0.9 -0.3 -0.5 0.4 1.5 2.5 -1.2 0.9 -6.7 -3.9 -3.1 -2.8 -5.4 -5.6 -5.1 -6.1 0.4 -0.6 0.3 -0.8 -0.3 -0.5 -0.6 0.4 -2.9 -1 -5.2 -3 -3.3 -2.8 -3.9 -3.8 -2.9 -4.5 1 -0.8 0.9 -0.9 -0.3 -0.5 -2.1 0.7 -6.4 -3.7 -5.4 -5.4 0.5 -0.7 0.4 -1 -0.2 -0.6 -1.4 0.9 -9.6 -8 -8.7 -9.5 0.4 -0.6 0.3 -0.8 -0.4 -0.4 -1 0.6 -10.1 -10.5 -10.5 -12.9 -0.1 -0.5 -1.2 -2 -2.5 -3.4 -1.2 -1.4 -2 -3.1 -1.7 -3.8 0.2 -0.8 0.1 -1.1 -0.5 -0.8 -1.9 1.2 -17.3 -30.4 -17.3 -35.7 0 -1.6 -0.3 -2.4 -0.7 -1.7 -0.5 0.6 -1 0 -1.4 -1.6 -0.4 -1.5 -0.5 -3 -0.1 -3.3 0.3 -0.3 0.5 0.1 0.5 0.8 0 0.7 0.2 1.1 0.5 0.8 0.8 -0.8 -0.6 -3.9 -1.5 -3.3 -1.1 0.7 -2.3 -5.1 -1.4 -6.6 0.4 -0.7 0.3 -0.9 -0.3 -0.6 -1.4 0.9 -4.5 -14.8 -4.9 -24.9 -0.2 -4.4 -0.6 -8.8 -1 -9.7 -1 -2.7 1.4 -28.9 3.7 -40.1 1.1 -5.5 3.4 -14 5 -19 4.1 -12.1 14.8 -33.8 16.3 -32.9 0.6 0.3 0.8 0.3 0.4 -0.2 -1.1 -1.2 2.1 -6.7 3.4 -5.9 0.7 0.4 0.8 0.3 0.4 -0.5 -0.8 -1.2 5.9 -11.1 7.5 -11.1 0.6 0 0.8 -0.4 0.5 -0.9 -0.3 -0.4 1.2 -2.8 3.4 -5.1 2.2 -2.4 4 -4.6 4 -4.9 0 -1.3 20.8 -21.1 29 -27.7 12.2 -9.9 25.7 -18.7 27.1 -17.8 0.7 0.4 0.9 0.3 0.6 -0.3 -0.8 -1.3 16 -10.6 17.5 -9.7 0.6 0.4 0.8 0.3 0.5 -0.3 -0.8 -1.3 17.1 -9.6 19 -8.9 0.8 0.3 1.2 0.2 0.9 -0.3 -0.8 -1.2 5 -3.5 6.5 -2.5 0.7 0.4 1 0.3 0.6 -0.3 -0.4 -0.6 0.5 -1.5 1.9 -2.2 3.1 -1.4 4.4 -1.4 2.4 0 -1.1 0.8 -0.9 0.9 1 0.4 1.4 -0.4 3 -1.2 3.5 -1.7 0.6 -0.6 0.3 -0.7 -1 -0.2 -1.1 0.4 -1.8 0.5 -1.5 0.2 1.5 -1.7 33 -14 35.7 -13.9 1.8 0 3.5 -0.4 3.8 -0.8 0.3 -0.5 -0.5 -0.7 -1.7 -0.5 -2.2 0.4 -2.2 0.4 -0.3 -0.5 9.5 -4.7 34.9 -14.9 35.9 -14.5 0.8 0.3 1.7 0.1 2.1 -0.5 0.4 -0.7 -0.1 -0.9 -1.2 -0.5 -1 0.3 -0.1 -0.4 2 -1.6 2.1 -1.1 4.3 -1.8 4.9 -1.4 0.6 0.4 0.8 0.3 0.5 -0.3 -0.3 -0.5 3.7 -3.4 9 -6.4 5.3 -3 9.7 -5.2 9.9 -4.9 0.2 0.3 0.9 -0.4 1.7 -1.4 0.8 -1.1 1.9 -1.6 2.6 -1.2 0.6 0.4 1 0.3 0.9 -0.2 -0.2 -0.5 4.2 -4.3 9.7 -8.4 11.5 -8.8 22 -17.8 22 -19 0 -0.4 -2.8 -2.6 -6.3 -4.7 -3.8 -2.3 -5.8 -4.1 -5 -4.4 0.7 -0.3 0.4 -0.5 -0.7 -0.4 -3.1 0.3 -20.8 -6.5 -19.3 -7.4 0.7 -0.5 -0.4 -0.8 -2.7 -0.7 -2.2 0 -6 -0.5 -8.3 -1.2 -15.4 -4.1 -19.7 -4.3 -90.2 -4.9 -37.7 -0.3 -65.1 -0.8 -61 -1.2 l7.5 -0.6 -8.9 0 c-8.8 0.1 -8.9 0.1 -11.7 -3.1 -1.6 -1.8 -2.7 -3.7 -2.4 -4.3 0.4 -0.5 0.2 -0.8 -0.3 -0.7 -1.5 0.4 -7.4 -8.1 -6.6 -9.4 0.4 -0.7 0.3 -0.8 -0.4 -0.4 -0.9 0.6 -3.2 -2.1 -3.2 -3.8 0 -1 133.4 -0.6 148.5 0.4 18 1.1 25 2.1 23.4 3.1 -1.7 1 3.3 2.3 5.9 1.5 2.7 -0.9 19.4 3.3 18.5 4.7 -0.3 0.6 -0.1 0.7 0.6 0.3 1.4 -0.9 8.2 1.4 7.5 2.6 -0.3 0.4 1 0.8 2.8 0.8 3.7 0.1 14.2 5.1 13.6 6.6 -0.1 0.5 0.9 0.9 2.4 1 2.9 0.1 13.1 6.1 12.3 7.3 -0.2 0.4 0.5 0.7 1.7 0.6 1.1 -0.1 2.4 -0.9 3 -1.8 0.5 -1 1.4 -1.4 2 -1.1 0.6 0.4 0.8 0.3 0.5 -0.3 -0.4 -0.6 1.6 -4.7 4.3 -9.3 2.7 -4.5 5.2 -9.1 5.5 -10.1 0.4 -1.1 1.1 -1.6 1.7 -1.3 0.6 0.4 0.8 0.2 0.4 -0.4 -0.3 -0.6 0.2 -3.2 1.2 -5.8 1.1 -2.6 2.1 -4.3 2.4 -3.8 0.3 0.5 0.3 0.3 0.2 -0.4 -0.2 -0.7 0.7 -5 2 -9.5 1.3 -4.5 2.9 -12.2 3.5 -17.2 1.9 -14.4 6.1 -18.3 18.9 -17.6 1.3 0 2.1 0.5 1.8 1 -0.3 0.5 0.2 0.8 1.2 0.7 0.9 0 1.6 0.5 1.4 1.2 -0.1 0.8 0.2 1.1 0.7 0.7 0.6 -0.3 1.8 0.7 2.8 2.2 1.4 2.2 1.8 4.6 1.7 12.3 -0.1 5.2 -0.6 12.2 -1.3 15.5 -2.9 14.1 -11.4 38.1 -13.1 37 -0.5 -0.3 -1.1 -0.1 -1.5 0.5 -0.3 0.5 -0.1 1 0.5 1 0.6 0 -0.5 3.1 -2.6 7 -2 3.8 -4 6.7 -4.4 6.5 -0.5 -0.3 -1.2 0 -1.6 0.6 -0.4 0.8 -0.3 0.9 0.4 0.5 2.1 -1.3 1.2 0.8 -2.7 6.2 -2.1 2.8 -4.1 4.9 -4.6 4.5 -0.4 -0.5 -0.5 -0.3 -0.2 0.3 1.9 3.4 -37 42.1 -39.8 39.6 -0.5 -0.4 -0.5 -0.2 -0.2 0.4 0.9 1.6 -18.5 14.6 -20.6 13.9 -0.8 -0.4 -1.8 -0.1 -2.3 0.6 -0.5 0.9 -0.2 1 0.9 0.6 2.8 -1.1 1.9 0.2 -1.4 1.9 -2.3 1.1 -2.9 1.2 -2.3 0.2 0.4 -0.7 -0.4 -0.1 -1.9 1.5 -2.6 2.7 -3.4 3 -7.2 2.8 -1.2 0 -1.5 0.2 -0.7 0.5 1 0.5 0.8 1 -0.7 2.1 -1.2 0.8 -2.6 1.1 -3.3 0.7 -0.6 -0.4 -0.8 -0.3 -0.5 0.3 0.6 0.9 -13.8 8.3 -16.1 8.3 -0.5 0 -0.9 0.7 -0.9 1.5 0 0.8 0.4 1.2 0.8 1 0.8 -0.6 15 5.3 16.4 6.7 0.7 0.8 0.6 0.9 -0.3 0.4 -0.6 -0.4 -1.2 -0.3 -1.2 0.2 0 0.6 0.7 1.3 1.6 1.6 2.2 0.8 2.6 0.8 1.9 -0.4 -0.7 -1.2 1.2 -0.4 8.2 3.3 2.9 1.5 5.2 3.3 5 4 -0.1 0.7 1.1 1.3 2.7 1.5 1.7 0.2 7.6 3.5 13.3 7.4 10.1 6.9 11.9 8.4 8.6 7.1 -1.1 -0.4 -1.4 -0.3 -0.9 0.5 0.4 0.7 1.7 1.2 2.8 1.2 2.3 0 13.5 8.7 13 10.2 -0.1 0.5 0.1 0.7 0.6 0.4 1.2 -0.7 8.4 6.8 7.5 7.9 -0.5 0.4 -0.3 0.5 0.3 0.2 1.8 -1.1 20 18.6 18.8 20.4 -0.3 0.5 0 0.8 0.6 0.7 0.6 -0.2 2.3 1.3 3.8 3.1 1.5 1.9 2.1 3.2 1.5 2.7 -0.7 -0.4 -1.3 -0.2 -1.3 0.4 0 0.6 1.1 1.5 2.4 1.9 2.5 1 4 3.6 2.9 5.3 -0.3 0.7 -0.1 0.8 0.5 0.4 1.3 -0.8 6.3 6.6 5.8 8.6 -0.1 0.7 -0.1 0.9 0.2 0.5 0.7 -1.4 5 6.6 4.4 8.2 -0.3 0.8 -0.1 1.2 0.5 0.8 1.1 -0.7 1.9 0.8 6.4 11.7 3.2 7.5 3.3 8 2 7.2 -0.4 -0.3 -0.6 0.6 -0.3 1.9 0.2 1.4 0.8 2.7 1.2 3 0.5 0.3 0.6 -0.5 0.4 -1.7 -0.2 -1.3 1 1.8 2.7 6.7 2 5.6 3.2 11.2 3.3 14.7 0 3.2 0.4 5 0.7 4 0.7 -1.9 1.5 2.9 2.5 15.2 0.6 6.1 0.4 8 -0.7 8.7 -1 0.6 -1 0.9 -0.1 0.9 1.6 0 1.6 5.2 -0.1 6.9 -0.9 1.1 -0.9 1.3 0.1 0.7 1.9 -1.1 1.7 12.8 -0.3 14.7 -1 1.1 -1.1 1.7 -0.4 1.9 0.8 0.3 1 2.2 0.4 6.3 -0.5 4 -1 5.4 -1.6 4.4 -0.6 -0.9 -0.7 -0.4 -0.5 1.6 0.5 3.8 -1.4 13.6 -2.5 13 -0.4 -0.3 -1.1 0 -1.5 0.6 -0.4 0.8 -0.3 0.9 0.4 0.5 1.6 -1 1.5 0.8 -0.5 7 -0.9 2.9 -2.1 5 -2.6 4.7 -0.6 -0.3 -0.7 -0.1 -0.3 0.6 1 1.5 -5.3 17.3 -6.5 16.5 -0.5 -0.3 -0.6 0.1 -0.3 0.9 0.3 0.8 -0.2 2.2 -1.1 3.1 -0.9 0.9 -1.4 1.6 -1.1 1.6 0.4 0 -0.5 2.3 -1.9 5 -1.4 2.8 -2.9 5 -3.4 5 -0.4 0 -0.8 0.6 -0.8 1.4 0 2.4 -10.9 17.7 -20 28.1 -11.1 12.6 -28.1 28.8 -29.4 28 -0.5 -0.4 -0.8 -0.2 -0.7 0.3 0.5 1.5 -10 9.4 -11.3 8.6 -0.7 -0.4 -0.9 -0.3 -0.6 0.3 0.4 0.6 -1.9 2.7 -5 4.8 -4.4 2.9 -5.8 3.4 -6.5 2.3 -0.6 -0.9 -0.8 -0.8 -0.6 0.7 0.2 1.4 -0.2 2 -1.4 1.9 -1 -0.1 -1.6 0.2 -1.3 0.6 0.6 0.9 -6.3 5.3 -8.2 5.3 -0.7 0 -1.3 0.4 -1.3 0.9 0 1.3 -14 7.9 -15.2 7.2 -0.6 -0.4 -0.8 -0.3 -0.5 0.3 0.8 1.3 -2 2.6 -3.5 1.6 -0.6 -0.3 -0.8 -0.1 -0.5 0.4 0.7 1.2 -9.9 6 -12.2 5.5 -0.7 -0.2 -1 0.1 -0.7 0.6 0.7 1.2 -9.2 5.4 -10.7 4.5 -0.6 -0.3 -0.7 -0.1 -0.3 0.5 0.7 1.2 -1 1.7 -4.9 1.4 -1.4 -0.2 -1.6 0 -0.7 0.6 1.6 1.1 -17.2 8.7 -18.9 7.6 -0.7 -0.4 -0.9 -0.3 -0.6 0.3 0.8 1.3 -5 3.6 -6.6 2.6 -0.5 -0.3 -0.7 -0.1 -0.4 0.4 0.7 1.1 -7.7 4.8 -10.6 4.5 -0.9 0 -1.5 0.3 -1.2 0.7 0.6 1.1 -16.4 7.7 -19 7.3 -1.5 -0.1 -1.6 0 -0.7 0.7 1.1 0.6 0.7 1.1 -1.5 1.9 -1.5 0.5 -3.7 1.3 -4.7 1.8 -1.5 0.6 -1.7 0.4 -1.1 -0.6 0.5 -0.9 0.4 -1.1 -0.4 -0.6 -0.6 0.4 -0.9 1.1 -0.6 1.6 0.5 0.8 -4.8 3.4 -6.1 3 -0.4 -0.1 -1 0.3 -1.3 0.8 -1.1 1.7 -7.1 4.3 -8.3 3.6 -0.6 -0.4 -0.8 -0.3 -0.5 0.3 0.7 1.1 -4.9 4.7 -6.2 3.8 -0.5 -0.3 -1.3 0 -1.7 0.6 -0.4 0.8 -0.3 0.9 0.4 0.5 0.7 -0.4 1.2 -0.5 1.2 -0.2 0 0.9 -5.7 3.6 -6.4 3.1 -0.3 -0.3 -0.4 -0.2 -0.1 0.1 0.2 0.4 -1.4 2 -3.7 3.6 -3.2 2.4 -4.2 2.7 -5 1.6 -0.7 -1 -0.8 -0.9 -0.6 0.4 0.4 2.1 -5.8 6.8 -8 6.1 -1.3 -0.4 -1.4 -0.3 -0.4 0.5 1 0.7 0.3 1.7 -3 4.3 -2.4 1.9 -5.7 4.7 -7.5 6.3 l-3.2 2.9 2.2 1.7 c1.2 0.9 4.1 2.8 6.5 4.2 2.3 1.3 3.9 2.8 3.5 3.1 -0.3 0.4 0.3 0.7 1.4 0.7 2.7 0 13.5 5 14.9 6.8 0.7 0.9 1.8 1.3 2.8 0.9 1 -0.4 5.2 0.2 9.4 1.3 4.1 1.1 8.4 2 9.4 2 1 0 1.8 0.8 1.9 1.8 0 1 0.3 1.2 0.6 0.5 0.2 -0.7 1.6 -1.3 2.9 -1.3 1.4 0 2.3 0.3 2.1 0.8 -0.3 0.4 3.1 0.5 7.5 0.3 4.4 -0.2 7.8 0.1 7.5 0.5 -0.3 0.5 7.6 0.8 17.6 0.6 13.8 -0.2 18.2 0.1 18.9 1 0.6 1 0.8 1 0.8 0.1 0 -0.9 2.2 -1.3 7.5 -1.3 5.3 0 7.5 0.4 7.5 1.3 0 0.9 0.2 0.9 0.8 0 1 -1.6 38.4 -1.6 39.4 0.1 0.6 0.8 0.8 0.8 0.8 -0.1 0 -0.9 4 -1.2 15 -1.2 8.7 0 15 0.4 15 1 0 0.5 0.8 0.9 1.8 0.9 1.5 0 9.7 9.2 9.2 10.2 -0.1 0.2 1.4 2.1 3.5 4.3 2 2.2 4.1 4.9 4.7 6 1 1.8 1 1.9 -0.7 0.5 -1.4 -1.1 -1.9 -1.2 -2.2 -0.2 -0.6 1.6 -144.3 1.8 -159.1 0.1 -16.5 -1.8 -40.8 -8.2 -38.1 -10.1 1 -0.7 0.9 -0.8 -0.7 -0.3 -3 0.8 -6 -0.4 -4.2 -1.7 1 -0.7 0.8 -0.8 -0.5 -0.4 -2.4 0.8 -16 -6.1 -15.1 -7.6 0.4 -0.7 0.3 -0.8 -0.5 -0.4 -1.4 0.9 -7.3 -3.2 -6.5 -4.5 0.3 -0.5 0.2 -0.9 -0.3 -0.8 -0.4 0.1 -1.7 -0.2 -2.7 -0.6 -1.9 -0.8 -1.9 -0.9 0 -1.6 1.6 -0.7 1.5 -0.8 -0.7 -0.8 -2 -0.1 -3.5 1.2 -7 6.2 -6.1 8.4 -11.4 17.3 -13.4 22.4 -1 2.5 -2.2 4 -2.8 3.6 -0.6 -0.4 -0.8 0 -0.4 1 0.3 0.8 -0.3 3.8 -1.3 6.5 -2.3 6.1 -4.6 15.8 -5.5 23.7 -0.9 7.1 -2.1 10.8 -3.4 10.1 -0.5 -0.3 -1.2 0.1 -1.5 1 -0.4 1 -0.2 1.3 0.7 0.9 0.6 -0.4 -0.1 0.5 -1.6 1.9 -3.6 3.4 -11.5 3.6 -16.5 0.6z m278.6 -49.7 c-1 -0.2 -2.8 -0.2 -4 0 -1.3 0.2 -0.5 0.4 1.7 0.4 2.2 0.1 3.2 -0.1 2.3 -0.4z m-170.8 -3.3 c-0.8 -0.5 -2.6 -0.9 -4 -0.9 l-2.5 0.1 2.5 0.8 c1.4 0.4 3.2 0.8 4 0.9 1.3 0.1 1.3 0 0 -0.9z m66.1 -136.6 c1.6 -0.8 3.8 -1.2 4.9 -0.9 1 0.3 2.1 0.1 2.5 -0.4 0.4 -0.7 -0.1 -0.9 -1.2 -0.5 -1.7 0.5 -1.7 0.5 0 -0.6 1 -0.6 2.5 -0.9 3.3 -0.6 0.8 0.3 1.3 0.2 1 -0.3 -0.3 -0.5 2.8 -2.2 6.9 -4 8.3 -3.4 8.9 -3.6 7.9 -1.9 -0.4 0.7 -0.3 0.8 0.5 0.4 0.6 -0.4 0.9 -1.1 0.7 -1.5 -0.3 -0.4 4.8 -3.3 11.3 -6.4 6.5 -3.1 16.6 -8.6 22.5 -12.1 6.4 -3.9 11.4 -6.3 12.4 -5.9 1.2 0.3 1.3 0.2 0.4 -0.4 -0.9 -0.7 -0.4 -1.5 2 -3.3 1.7 -1.3 3.7 -2.3 4.4 -2.3 0.7 0 1 -0.5 0.7 -1 -0.4 -0.6 0.1 -0.8 1.1 -0.4 0.9 0.4 1.5 0.3 1.2 -0.2 -0.3 -0.5 1.6 -2.6 4.2 -4.7 2.6 -2 6.3 -5.3 8.4 -7.2 2.3 -2.2 4.1 -3.2 5 -2.7 0.7 0.5 1 0.5 0.6 0 -0.4 -0.4 2.6 -4.4 6.8 -8.7 16.3 -17.4 28.9 -37 36.7 -57.1 1.8 -4.8 3.7 -8.4 4.2 -8 0.4 0.5 0.5 0.2 0.1 -0.4 -0.4 -0.7 0.2 -5.5 1.3 -10.5 1 -5.1 2.1 -11.3 2.3 -13.8 l0.3 -4.5 -15.2 0 c-8.3 0 -14.9 0.3 -14.7 0.6 0.6 1.1 -2.4 1.9 -6.8 1.9 -3.2 0 -4.7 -0.7 -7.4 -3.4 -2.8 -2.8 -3.4 -4.1 -3.4 -7.7 0 -5.6 3.3 -11.3 6 -10.6 1.1 0.3 1.8 0.1 1.4 -0.4 -0.3 -0.5 7.8 -0.9 19.5 -0.9 l20.1 0 0 -3.4 c0 -4.7 -2.7 -18.3 -5.1 -25.8 -1.1 -3.4 -1.7 -6.8 -1.4 -7.6 0.2 -0.7 0.1 -1.1 -0.3 -0.9 -0.4 0.3 -3 -4.4 -5.9 -10.4 -2.9 -6 -4.8 -10.7 -4.3 -10.4 0.5 0.3 1.2 0.1 1.5 -0.5 0.4 -0.6 0.3 -1 -0.2 -0.9 -2.2 0.4 -3.3 -0.4 -5.1 -3.5 -1.5 -2.5 -1.7 -3.6 -0.9 -4 0.7 -0.2 0.4 -0.5 -0.5 -0.5 -0.9 -0.1 -2.7 -1.6 -3.9 -3.3 -1.3 -1.8 -4.4 -5.9 -7.1 -9.1 -2.6 -3.3 -4.5 -6.4 -4.1 -7 0.3 -0.7 0.2 -0.9 -0.2 -0.4 -1.2 1 -4.6 -2.3 -3.8 -3.7 0.3 -0.6 0.2 -0.8 -0.2 -0.3 -1.2 1 -8.6 -6.3 -7.8 -7.7 0.3 -0.6 0.3 -0.8 -0.1 -0.4 -0.4 0.4 -4 -2.1 -7.9 -5.4 -4 -3.3 -10.7 -8.5 -15 -11.5 -4.4 -3.1 -7.4 -5.9 -7.1 -6.5 0.4 -0.6 0.2 -0.8 -0.3 -0.5 -1.5 1 -10.5 -4.2 -9.7 -5.5 0.4 -0.6 0.2 -0.8 -0.4 -0.5 -1.5 1 -4.3 -0.3 -3.5 -1.6 0.3 -0.5 0.1 -0.7 -0.5 -0.3 -1.4 0.8 -15.4 -6.8 -14.5 -7.9 0.5 -0.4 0.3 -0.5 -0.3 -0.2 -0.7 0.4 -4 -0.6 -7.5 -2.2 -3.4 -1.5 -5.8 -3 -5.3 -3.3 0.5 -0.3 0.3 -0.3 -0.4 -0.2 -0.6 0.2 -1.9 0.1 -2.8 -0.3 -1.3 -0.5 -1.3 -0.8 -0.2 -1.5 0.9 -0.7 0.8 -0.8 -0.6 -0.4 -2.3 0.8 -17.8 -5.3 -17 -6.6 0.3 -0.4 -0.3 -0.5 -1.2 -0.1 -1.1 0.4 -1.5 0.3 -1 -0.5 0.4 -0.6 -0.1 -1.1 -1.1 -1.1 -1 0 -3 -0.3 -4.6 -0.7 -1.8 -0.4 -4.4 0.1 -7.7 1.5 -2.8 1.2 -5.6 1.9 -6.2 1.5 -0.6 -0.4 -0.8 -0.3 -0.5 0.3 0.8 1.2 -11.1 6.5 -12.6 5.6 -0.6 -0.4 -0.7 -0.1 -0.2 0.7 0.6 1 0.3 1.2 -1.3 0.8 -1.2 -0.4 -2 -0.3 -1.7 0.2 0.5 0.8 -12.3 6.6 -14.3 6.4 -0.7 -0.1 -1.1 0 -0.8 0.3 0.9 0.9 -13.9 7.7 -16.4 7.5 -1.7 -0.1 -2.1 0.1 -1.2 0.7 1 0.6 -0.3 1.8 -4.5 4.1 -3.2 1.8 -6.4 3.3 -7 3.3 -0.7 0 -1.1 0.2 -0.9 0.5 0.9 0.8 -14.5 10.2 -15.6 9.6 -0.6 -0.4 -0.8 -0.3 -0.5 0.3 0.9 1.4 -6 6.6 -7.5 5.7 -0.6 -0.4 -0.8 -0.3 -0.4 0.4 0.8 1.3 -7.1 7.8 -8.9 7.4 -0.8 -0.1 -1.6 0.2 -2 0.8 -0.4 0.6 0.1 0.7 1.2 0.4 1 -0.3 -0.4 1.5 -3 4 -2.7 2.5 -5.4 4.3 -6 3.9 -0.6 -0.3 -0.7 -0.1 -0.3 0.5 0.4 0.7 -0.7 2.7 -2.6 4.6 -5.6 5.7 -9.2 9.9 -12.9 14.8 -2 2.6 -3.8 4.5 -4.1 4.3 -0.3 -0.3 -0.5 0.1 -0.5 0.8 0 0.6 -2.2 4.8 -4.9 9.2 -2.7 4.4 -5.8 10 -6.8 12.3 -1.4 3.1 -2.2 3.9 -2.8 3 -0.6 -0.9 -0.7 -0.6 -0.4 0.8 0.6 2.1 -3.8 14.4 -4.6 12.8 -0.3 -0.5 -0.3 -0.3 -0.2 0.4 0.6 2.4 -0.9 7.2 -2.2 7.2 -0.8 0 -1.4 0.8 -1.4 1.8 0 1.4 0.2 1.5 1 0.2 1.3 -2 1.2 -0.8 -0.5 8.3 -0.8 4.3 -1.5 8.3 -1.5 8.8 0 0.5 7.6 0.9 17.5 0.9 16.4 0 17.5 0.1 18.5 2 0.6 1.1 1.7 2 2.6 2 2.4 0 3.7 4.9 2.4 9.3 -1.9 6.5 -3.8 7 -23.6 7 -9.6 0 -17.6 0.3 -17.8 0.6 -0.2 0.3 0.2 4.6 1 9.5 0.8 4.9 1.2 9.8 0.9 11 -0.5 1.5 -0.4 1.7 0.3 0.7 1.2 -1.7 3.5 7.8 2.6 10.6 -0.4 1.2 -0.3 1.4 0.3 0.6 1.2 -1.6 5.5 10 4.7 12.5 -0.4 1.2 -0.3 1.4 0.4 0.4 0.7 -1 1.2 -0.6 2.1 1.7 0.7 1.6 1 3.5 0.5 4.2 -0.4 0.7 -0.3 1 0.3 0.6 1.3 -0.8 5.6 7 4.7 8.5 -0.4 0.7 -0.4 1 0.1 0.6 1 -0.9 5.8 5.8 5.1 7 -0.3 0.4 0 1.4 0.6 2.2 0.8 1.2 0.9 1.2 0.4 -0.2 -0.8 -2.7 -0.2 -2.2 3.4 2.9 1.9 2.5 2.8 4.3 2.1 3.8 -0.9 -0.5 -1.2 -0.3 -0.9 0.6 0.3 0.8 1 1.3 1.6 1.2 0.6 -0.2 2.5 1.6 4.3 4 1.8 2.3 8.4 9.3 14.8 15.6 6.4 6.3 11.5 11.9 11.3 12.4 -0.2 0.5 0.3 0.7 1 0.4 0.8 -0.2 3.1 1.1 5.3 3 2.2 1.9 3.4 3.2 2.8 2.8 -0.8 -0.4 -1.3 0 -1.3 0.9 0 0.9 0.9 1.6 2.1 1.6 1.3 0 1.8 -0.4 1.3 -1.2 -0.4 -0.6 1.8 0.7 4.8 2.8 3.1 2.1 5.3 4.4 5 4.9 -0.3 0.6 -0.2 0.7 0.3 0.3 1.1 -1.1 4.7 1.1 3.9 2.4 -0.4 0.7 -0.3 0.8 0.4 0.4 1.8 -1.1 7.2 2.2 6.6 3.9 -0.4 0.8 -0.2 1.5 0.4 1.5 0.6 0 1.9 0.3 2.9 0.6 1.6 0.6 1.6 0.5 -0.2 -1 -1.1 -0.9 1.2 0.1 5.2 2.1 4 2.1 7.4 4.6 7.7 5.6 0.3 1.3 1.2 1.8 2.8 1.6 2.7 -0.4 9 2 8.3 3.1 -0.3 0.5 0.3 0.6 1.3 0.3 1.2 -0.3 2.5 0.4 3.6 2.1 0.9 1.4 2.2 2.6 2.8 2.6 0.7 0 0.3 -0.7 -0.8 -1.5 -1 -0.8 -1.4 -1.5 -0.7 -1.5 0.6 0 1.8 0.6 2.5 1.3 0.7 0.6 2 1.3 2.9 1.4 0.8 0.2 6.7 2.5 13 5.3 6.3 2.7 12 5 12.7 5 0.7 0 2.6 -0.7 4.3 -1.6z m181.6 -162.1 c-0.3 -1 -0.5 -0.2 -0.5 1.7 0 1.9 0.2 2.7 0.5 1.8 0.2 -1 0.2 -2.6 0 -3.5z m-61.9 -17 c-1 -0.2 -2.8 -0.2 -4 0 -1.3 0.2 -0.5 0.4 1.7 0.4 2.2 0.1 3.2 -0.1 2.3 -0.4z m-137.2 -182.8 c1.7 -1.3 1.6 -1.4 -1.3 -0.4 -3.4 1.1 -4.2 1.9 -2 1.9 0.7 0 2.2 -0.7 3.3 -1.5z m37.5 -15.8 c-0.5 -0.5 -1.7 -0.5 -2.8 0.2 -1.6 0.9 -1.5 1 0.9 0.9 1.6 -0.2 2.4 -0.6 1.9 -1.1z m27.7 -75.4 c-1 -0.2 -2.6 -0.2 -3.5 0 -1 0.3 -0.2 0.5 1.7 0.5 1.9 0 2.7 -0.2 1.8 -0.5z m-15.9 -1.7 c-1.2 -1 -6 -1.6 -5.4 -0.6 0.3 0.5 1.8 1 3.2 1 1.5 0 2.4 -0.2 2.2 -0.4z m-109.2 -1.3 c-2 -0.2 -5.2 -0.2 -7 0 -1.7 0.2 0 0.4 3.8 0.4 3.9 0 5.3 -0.2 3.2 -0.4z m11.6 0 c-1.3 -0.2 -3.5 -0.2 -5 0 -1.6 0.2 -0.5 0.4 2.2 0.4 2.8 0 4 -0.2 2.8 -0.4z m8.5 0 c-1 -0.2 -2.8 -0.2 -4 0 -1.3 0.2 -0.5 0.4 1.7 0.4 2.2 0.1 3.2 -0.1 2.3 -0.4z m8 0 c-1 -0.2 -2.6 -0.2 -3.5 0 -1 0.3 -0.2 0.5 1.7 0.5 1.9 0 2.7 -0.2 1.8 -0.5z m8.5 0 c-1.3 -0.2 -3.3 -0.2 -4.5 0 -1.3 0.2 -0.3 0.4 2.2 0.4 2.5 0 3.5 -0.2 2.3 -0.4z m15.5 0 c-1 -0.2 -2.6 -0.2 -3.5 0 -1 0.3 -0.2 0.5 1.7 0.5 1.9 0 2.7 -0.2 1.8 -0.5z m8 0 c-1 -0.2 -2.8 -0.2 -4 0 -1.3 0.2 -0.5 0.4 1.7 0.4 2.2 0.1 3.2 -0.1 2.3 -0.4z m8 0 c-1 -0.2 -2.8 -0.2 -4 0 -1.3 0.2 -0.5 0.4 1.7 0.4 2.2 0.1 3.2 -0.1 2.3 -0.4z m11 0 c-1.6 -0.2 -4 -0.2 -5.5 0 -1.6 0.2 -0.3 0.4 2.7 0.4 3 0 4.3 -0.2 2.8 -0.4z m13 0 c-1 -0.2 -2.6 -0.2 -3.5 0 -1 0.3 -0.2 0.5 1.7 0.5 1.9 0 2.7 -0.2 1.8 -0.5z m8 0 c-1 -0.2 -2.6 -0.2 -3.5 0 -1 0.3 -0.2 0.5 1.7 0.5 1.9 0 2.7 -0.2 1.8 -0.5z m22.2 -18.6 c0 -0.7 -0.4 -0.6 -1 0.3 -0.6 1 -1 1.1 -1 0.3 0 -0.7 -0.8 -1.3 -1.7 -1.3 -1.5 0 -1.4 0.2 0.2 1.4 2.1 1.5 3.5 1.2 3.5 -0.7z m-137.2 -2.4 c-1 -0.2 -2.8 -0.2 -4 0 -1.3 0.2 -0.5 0.4 1.7 0.4 2.2 0.1 3.2 -0.1 2.3 -0.4z m21 0 c-1.5 -0.2 -4.2 -0.2 -6 0 -1.8 0.2 -0.6 0.4 2.7 0.4 3.3 0 4.8 -0.2 3.3 -0.4z m16 0 c-1 -0.2 -2.8 -0.2 -4 0 -1.3 0.2 -0.5 0.4 1.7 0.4 2.2 0.1 3.2 -0.1 2.3 -0.4z m8 0 c-1 -0.2 -2.6 -0.2 -3.5 0 -1 0.3 -0.2 0.5 1.7 0.5 1.9 0 2.7 -0.2 1.8 -0.5z m40 0 c-1 -0.2 -2.8 -0.2 -4 0 -1.3 0.2 -0.5 0.4 1.7 0.4 2.2 0.1 3.2 -0.1 2.3 -0.4z"/>
  <path d="M669.5 871 c0.3 -0.5 0 -0.7 -0.8 -0.4 -2.5 0.9 -7.5 -6 -8.2 -11.3 -0.4 -2.6 -1.7 -9.3 -3 -14.7 -1.3 -5.5 -2 -10.6 -1.7 -11.4 0.4 -1.1 0.1 -1.3 -0.8 -0.7 -1 0.6 -1.2 0.4 -0.7 -0.9 0.4 -0.9 0.3 -1.5 -0.2 -1.2 -0.5 0.3 -1.4 -0.7 -1.9 -2.3 -0.8 -2.2 -0.7 -3.1 0.1 -3.5 0.7 -0.2 0.5 -0.5 -0.4 -0.5 -1.7 -0.1 -4.7 -5.7 -4.1 -7.6 0.2 -0.5 0 -0.7 -0.4 -0.3 -0.7 0.8 -7.6 -9.9 -7.7 -11.9 0 -0.7 -0.2 -1.1 -0.5 -0.8 -0.2 0.2 -2.4 -1.9 -4.8 -4.8 -2.4 -2.9 -3.8 -5.4 -3.2 -5.8 0.5 -0.3 0 -0.9 -1.2 -1.2 -1.4 -0.4 -1.9 -1 -1.4 -1.8 0.4 -0.7 0.3 -1 -0.3 -0.6 -0.5 0.3 -4.7 -3.2 -9.4 -7.9 -4.6 -4.7 -11.4 -11 -15.1 -14.1 -3.8 -3 -6.6 -5.8 -6.3 -6.2 0.2 -0.4 -0.1 -0.8 -0.8 -0.8 -1.9 0 -22.2 -14.3 -21.9 -15.4 0.1 -0.6 -0.3 -0.9 -1 -0.7 -1.8 0.4 -13.9 -6.3 -13.2 -7.3 0.3 -0.5 -0.1 -0.7 -0.8 -0.4 -1.7 0.6 -15.1 -6.9 -14.1 -7.9 0.4 -0.4 0.1 -0.5 -0.7 -0.1 -0.9 0.3 -3.2 -0.4 -5.4 -1.4 l-3.8 -2 3.7 -1.5 c2 -0.9 4.2 -1.3 4.9 -0.9 0.6 0.3 0.8 0.3 0.4 -0.2 -1 -1 11.2 -6.7 12.9 -6.1 0.8 0.3 1.2 0.2 0.9 -0.3 -0.5 -0.8 10.8 -6.1 13.1 -6.1 2.4 0 6.2 2.3 5.6 3.4 -0.3 0.6 -0.3 0.8 0.2 0.4 0.9 -0.8 11 4.1 10.1 4.9 -0.3 0.3 -1.2 0 -2.1 -0.7 -0.8 -0.7 -1.5 -0.8 -1.5 -0.2 0 1.2 2.9 2.4 4.1 1.6 1.4 -0.8 13 6.6 12.3 7.8 -0.4 0.6 -0.1 0.8 0.7 0.6 4.2 -1.6 49.5 37.9 47.4 41.2 -0.5 0.8 -0.4 1.1 0.2 0.7 1.5 -0.9 5.7 3.9 4.8 5.4 -0.5 0.7 -0.4 1 0.2 0.6 0.6 -0.4 1.9 0.3 2.9 1.4 1.6 1.7 1.6 2.2 0.4 3 -1.2 0.8 -1.1 0.9 0.4 0.7 1 -0.2 2.1 0.3 2.4 1.1 0.3 0.9 0 1.1 -0.8 0.6 -0.9 -0.5 -1.1 -0.4 -0.6 0.4 0.4 0.6 1.1 0.9 1.6 0.6 1.1 -0.7 4 3.9 4 6.3 0 1.1 0.8 2.2 1.8 2.4 0.9 0.3 3.2 3.4 5.1 6.8 1.9 3.5 2.8 5.9 2.1 5.5 -1 -0.6 -1.2 -0.4 -0.7 0.9 0.4 1 0.7 2.1 0.7 2.4 0 0.4 0.4 0.1 0.9 -0.6 0.6 -1 1.3 -0.2 2.5 2.8 0.9 2.3 1.3 4.6 1 5.2 -0.4 0.6 -0.2 0.8 0.3 0.5 1.4 -0.9 3.3 4.5 2.6 7.5 -0.3 1.7 -0.2 1.9 0.5 0.9 0.7 -1 1.4 -0.1 2.5 3.5 5.5 17.7 6.7 36.4 2.5 39 -0.7 0.5 -0.8 0.3 -0.3 -0.6 0.5 -0.8 0.4 -1.1 -0.3 -0.6 -0.6 0.4 -0.9 1.3 -0.6 2.1 0.8 2.1 -4.8 4.5 -10.6 4.5 -3.1 0 -4.9 -0.4 -4.5 -1z m-58.5 -136.5 c-0.7 -0.8 -1.7 -1.5 -2.2 -1.5 -0.6 0 -0.5 0.7 0.2 1.5 0.7 0.8 1.7 1.5 2.2 1.5 0.6 0 0.5 -0.7 -0.2 -1.5z"/>
  <path d="M562.6 767.2 c-0.2 -0.1 -25.3 -0.2 -55.9 -0.2 -30.7 0 -55.7 -0.2 -55.7 -0.5 0 -1.1 11.4 -8.4 12.3 -7.8 0.5 0.3 0.7 0.2 0.4 -0.3 -0.8 -1.3 10 -7.7 11.5 -6.8 0.7 0.4 0.8 0.3 0.4 -0.4 -0.4 -0.7 1.7 -2.4 5.6 -4.4 l6.3 -3.3 22 0 22 0 6.7 3.4 c3.9 2 6.4 3.9 6.1 4.5 -0.3 0.6 -0.3 0.8 0.2 0.4 1.1 -1 8.7 3.1 7.9 4.3 -0.3 0.6 0 0.9 0.7 0.8 1.9 -0.3 5 1.1 4.4 2.1 -0.3 0.4 0.3 0.7 1.3 0.6 0.9 0 1.6 0.5 1.4 1.2 -0.1 0.8 0.2 1.1 0.7 0.8 1.2 -0.8 8.1 3.3 8.1 4.7 0 1 -5.6 1.8 -6.4 0.9z"/>
  <path d="M453.2 316.7 c-1.2 -0.7 -1.9 -1.7 -1.5 -2.2 0.4 -0.4 0.3 -0.5 -0.4 -0.2 -0.6 0.4 -1.9 0.4 -2.8 0.1 -1.3 -0.5 -1.4 -0.9 -0.3 -1.5 0.9 -0.6 0.5 -0.8 -1.2 -0.7 -3.1 0.2 -14.3 -5.9 -13.4 -7.4 0.4 -0.6 0.1 -0.8 -0.7 -0.6 -1.8 0.7 -3.4 -0.2 -15.1 -8 -5.4 -3.5 -9.5 -6.9 -9.1 -7.5 0.3 -0.5 0.1 -0.7 -0.4 -0.4 -0.6 0.4 -3.1 -1 -5.7 -3 -3.5 -2.7 -4.4 -3.9 -3.4 -4.6 0.9 -0.6 0.7 -0.7 -0.6 -0.3 -1.4 0.5 -4.6 -2.1 -13.7 -11.1 -6.9 -6.8 -11.4 -12 -10.8 -12.4 0.6 -0.4 0.3 -0.8 -0.9 -1.1 -3.8 -1 -22.8 -29.7 -21.7 -32.7 0.3 -0.9 0.3 -1.2 -0.1 -0.8 -1.8 1.8 -10.5 -22.6 -13 -36.3 -1.7 -10.1 -2 -23 -0.5 -25.9 1.6 -3 7.1 -6.8 11 -7.6 2.5 -0.5 3.2 -0.4 2.6 0.5 -0.5 0.9 -0.2 1 1.3 0.6 2.2 -0.7 7.5 1.5 8.8 3.5 0.4 0.8 0.3 0.9 -0.4 0.5 -0.7 -0.4 -1.2 -0.1 -1.2 0.8 0 0.9 0.9 1.6 2 1.6 2.2 0 3.7 5.3 2.6 9.5 -0.4 1.4 -0.3 2.5 0.2 2.5 0.4 0 1.4 3.3 2.1 7.3 0.7 3.9 2.2 9.5 3.2 12.3 1.1 2.8 1.8 5.8 1.6 6.5 -0.2 0.8 -0.2 1.1 0 0.7 0.2 -0.3 2.6 3.7 5.3 8.9 2.7 5.3 4.6 10.1 4.3 10.6 -0.3 0.6 -0.1 0.7 0.4 0.4 0.6 -0.4 1.8 0.4 2.7 1.7 1.2 1.8 1.2 2.6 0.3 2.9 -0.7 0.4 -0.6 0.6 0.4 0.6 0.9 0.1 4.5 3.6 8.2 7.9 3.6 4.2 8.1 9.2 10.1 11.1 1.9 1.9 3.2 3.9 2.9 4.4 -0.3 0.6 -0.2 0.7 0.4 0.4 0.5 -0.4 2.1 0.4 3.4 1.6 1.3 1.2 5 4.4 8.4 7.1 3.3 2.6 5.9 5.4 5.7 6.2 -0.2 0.8 0.5 1.4 1.8 1.4 2.4 0 7.2 2.9 6.5 3.9 -0.2 0.4 0.1 0.8 0.8 0.8 1.9 0 12.7 7.5 12.2 8.4 -0.3 0.4 0 1.1 0.6 1.5 0.8 0.4 0.9 0.3 0.5 -0.4 -0.4 -0.7 -0.2 -1.2 0.3 -1.2 0.6 0 1.1 0.7 1.1 1.5 0 0.8 0.9 1.5 1.9 1.5 2.8 0 22.5 11.3 22.9 13 0.5 2.3 1.9 3.3 2.7 1.9 0.5 -0.8 0.4 -1 -0.3 -0.5 -0.7 0.4 -1.2 0.2 -1.2 -0.4 0 -0.7 0.7 -0.9 1.6 -0.6 0.9 0.3 1.8 0.6 2 0.6 0.3 0 0.2 0.4 -0.1 1 -0.3 0.5 0 0.7 0.8 0.4 0.8 -0.3 4.1 0.9 7.3 2.6 3.3 1.7 5.1 2.9 4.2 2.6 -1 -0.3 -1.7 -0.2 -1.7 0.2 0.4 2.5 -1 3.7 -8.8 7.4 -5.6 2.6 -10.1 4 -12.4 3.9 -2.2 0 -4.2 0.5 -4.9 1.4 -1.1 1.4 -1 1.4 1.4 0.5 5 -1.9 4.2 -0.9 -1.3 1.6 -6.2 2.8 -5.9 2.7 -8.9 1.1z"/>
  <path d="M492.9 279.1 c-6.6 -1.3 -36.9 -19.7 -35.9 -21.7 0.3 -0.5 0.9 -0.8 1.3 -0.6 0.5 0.1 27.3 0.2 59.5 0.2 32.3 0 59.3 0.4 60 0.9 1 0.6 -0.1 1.7 -3.7 4 -2.8 1.8 -5.5 3 -6.1 2.6 -0.6 -0.4 -0.9 -0.1 -0.8 0.7 0.2 0.8 -0.4 1.2 -1.6 1 -1 -0.2 -1.5 0.1 -1.2 0.6 0.9 1.4 -16.9 10.3 -19.1 9.6 -1.4 -0.4 -1.5 -0.3 -0.5 0.4 1.1 0.7 0.8 1.1 -1 1.7 -3.1 1 -46.4 1.6 -50.9 0.6z"/>
 </g>
 <g fill="#fda4af">
  <path d="M488.5 625 c-0.4 -0.6 -1.1 -0.8 -1.6 -0.4 -1.6 0.9 -6.1 -2.6 -5.5 -4.2 0.3 -0.8 0.2 -1.3 -0.3 -1 -0.5 0.3 -1.2 -0.1 -1.5 -1 -0.3 -0.9 -0.6 -49.8 -0.6 -108.7 0 -104.4 0.1 -107.3 2 -110.4 2.8 -4.7 5.3 -5.7 8.7 -3.7 2.5 1.4 2.6 1.4 0.9 0 -1.9 -1.5 -1.9 -1.6 1 -1.6 1.7 0 3.9 0.7 5 1.6 1 0.8 1.2 1.2 0.4 0.8 -1.2 -0.7 -1.3 -0.5 -0.3 0.8 0.7 0.8 1 1.8 0.6 2.1 -0.3 0.4 0.1 0.7 1.1 0.7 1 0 1.4 -0.5 1 -1.2 -0.4 -0.7 -0.3 -0.8 0.4 -0.4 1.6 1 1.5 3.9 0 3.1 -0.7 -0.4 -0.5 0 0.5 0.8 1.6 1.3 1.7 7.7 1.7 108.1 0 78.4 -0.3 107.3 -1.1 108.9 -2.2 3.9 -5.1 5.7 -8.9 5.2 -2.7 -0.4 -3 -0.3 -1.5 0.4 1.7 0.8 1.7 1 0.3 1 -0.9 0.1 -2 -0.4 -2.3 -0.9z"/>
  <path d="M523.7 586.3 c-0.9 -0.2 -1.5 -0.9 -1.2 -1.4 0.3 -0.5 -0.1 -0.6 -0.9 -0.3 -1.9 0.7 -5 -4 -4.3 -6.6 0.3 -1.1 0.1 -2 -0.4 -2 -0.5 0 -0.9 -27.3 -0.9 -66.1 0 -75.2 -0.4 -71.4 7.8 -74.6 3.2 -1.2 4.7 -1.4 4.9 -0.6 0.3 0.7 1.1 0.9 1.9 0.6 2.2 -0.8 6.5 2.4 5.7 4.4 -0.4 1 -0.2 1.4 0.4 1 1.5 -1 2.3 2.8 2.2 10.8 -0.1 5 -0.3 6.3 -0.9 4.5 -0.8 -2.4 -0.8 -2.4 -1 0.8 -0.2 3.5 -0.2 9.4 -0.1 11.5 0.1 0.8 0.4 0.7 1.1 -0.3 0.8 -1.3 1 -1.2 1 0.3 0 0.9 -0.4 1.7 -1 1.7 -0.6 0 -0.9 3.1 -0.8 7.8 l0.2 7.7 0.6 -7 c0.4 -4 0.6 3.1 0.6 16.5 0 22.5 0 22.8 -0.6 7 l-0.5 -16.5 -0.5 15.5 c-0.3 8.5 -0.2 17.5 0.1 20 l0.5 4.5 0.5 -3.5 c0.3 -1.9 0.7 10.3 0.7 27.2 l0.2 30.6 -2.6 3.1 c-1.4 1.7 -3.1 3.1 -3.7 3.1 -0.7 0 -0.5 -0.5 0.3 -1 1.1 -0.7 0.7 -1 -1.9 -1 -2.5 0 -3.2 0.3 -2.7 1.5 0.5 1.5 -0.9 1.8 -4.7 0.8z m14.3 -17 c0 -2.6 -0.3 -3.4 -0.9 -2.4 -0.5 0.7 -0.7 2.1 -0.6 3 0.2 0.9 0.4 1.9 0.4 2.4 0.1 0.4 0.3 0.7 0.6 0.7 0.3 0 0.5 -1.7 0.5 -3.7z m-0.3 -17.5 c-0.2 -1.3 -0.4 -0.5 -0.4 1.7 -0.1 2.2 0.1 3.2 0.4 2.3 0.2 -1 0.2 -2.8 0 -4z m0 -8 c-0.2 -1.3 -0.4 -0.5 -0.4 1.7 -0.1 2.2 0.1 3.2 0.4 2.3 0.2 -1 0.2 -2.8 0 -4z m0 -8 c-0.2 -1.3 -0.4 -0.5 -0.4 1.7 -0.1 2.2 0.1 3.2 0.4 2.3 0.2 -1 0.2 -2.8 0 -4z m-0.6 -93.1 c-1.1 -1.1 -1.1 -0.7 0 8.3 0.1 1.4 0.4 0.3 0.6 -2.4 0.2 -2.7 -0.1 -5.4 -0.6 -5.9z m-18.9 5.3 c0.3 -1.6 0.1 -3 -0.4 -3 -0.4 0 -0.8 1.4 -0.8 3 0 1.7 0.2 3 0.4 3 0.2 0 0.6 -1.3 0.8 -3z"/>
  <path d="M447.5 583.5 c-2.1 -2 -2.6 -3.2 -2.1 -5.3 0.5 -2 0.4 -2.3 -0.4 -1.2 -0.7 1 -0.9 -20.5 -0.7 -68.7 l0.2 -70.3 2.7 -2.6 c1.9 -2 3.9 -2.8 7.6 -3.2 4.4 -0.4 5.4 -0.1 7.6 2.1 1.7 1.8 2.3 3.1 1.9 4.7 -0.4 1.6 -0.3 2.1 0.5 1.6 1.7 -1 1.6 5.6 0 7.3 -1 1.1 -1 1.3 0 0.7 0.9 -0.6 1.2 2.6 1.2 14.6 0 10.9 -0.4 15.8 -1.2 16.7 -1 1.1 -1 1.3 0 0.7 1.7 -1 1.7 29.4 0 31.3 -1 1.1 -1 1.3 0 0.7 0.8 -0.5 1.2 0.2 1.2 2.6 0 1.9 -0.6 4 -1.2 4.7 -1 1.1 -1 1.3 0 0.7 0.9 -0.5 1.2 1 1.2 6.6 0 4.5 -0.5 7.9 -1.2 8.7 -1 1.1 -1 1.3 0 0.7 0.8 -0.5 1.2 0.2 1.2 2.6 0 1.9 -0.6 4 -1.2 4.7 -1 1.1 -1 1.3 0 0.7 0.8 -0.5 1.2 0.2 1.2 2.6 0 1.9 -0.6 4 -1.2 4.7 -1 1.1 -1 1.3 0 0.7 0.9 -0.6 1.2 1.6 1.2 9.3 0 7.4 -0.3 10.1 -1.2 10.1 -0.9 0 -1 0.3 -0.2 0.8 0.6 0.4 1.1 1.6 1.1 2.7 0 1.1 -0.5 2.3 -1.1 2.7 -0.8 0.5 -0.7 0.8 0.2 0.8 0.6 0 1.2 0.5 1.2 1.1 0 0.5 -0.5 0.7 -1.2 0.3 -0.7 -0.5 -0.8 -0.3 -0.4 0.5 1.1 1.7 -2.2 5.1 -4.8 5 -1.9 -0.1 -1.8 -0.2 0.4 -0.9 1.8 -0.6 1 -0.8 -3.2 -0.7 -3.1 0.1 -5.4 0.5 -5.2 0.9 1.1 1.8 -1.5 0.6 -4.1 -1.7z m-1.8 -22.2 c-0.3 -1 -0.5 -0.2 -0.5 1.7 0 1.9 0.2 2.7 0.5 1.8 0.2 -1 0.2 -2.6 0 -3.5z m0 -40 c-0.3 -1 -0.5 -0.2 -0.5 1.7 0 1.9 0.2 2.7 0.5 1.8 0.2 -1 0.2 -2.6 0 -3.5z m0 -7.5 c-0.2 -1.3 -0.4 -0.5 -0.4 1.7 -0.1 2.2 0.1 3.2 0.4 2.3 0.2 -1 0.2 -2.8 0 -4z m0 -64 c-0.2 -1.3 -0.4 -0.3 -0.4 2.2 0 2.5 0.2 3.5 0.4 2.3 0.2 -1.3 0.2 -3.3 0 -4.5z"/>
  <path d="M567 555.1 c0 -0.5 -1.2 -1.1 -2.7 -1.4 -1.6 -0.3 -3.9 -0.8 -5.3 -1.2 l-2.5 -0.6 2.5 1.5 c2.8 1.7 1.9 2.2 -1.2 0.5 -4.5 -2.4 -4.8 -5.5 -4.8 -45.4 0 -20.7 0.4 -37.4 0.8 -37.1 0.5 0.3 0.7 -0.7 0.4 -2.3 -0.5 -3.9 1.9 -5.5 8.6 -5.4 8.7 0.1 10.7 0.6 10.6 2.6 -0.1 0.9 0.2 1.4 0.7 1.1 1 -0.6 1.3 80.5 0.3 83 -0.3 0.9 -1.7 1.6 -2.9 1.6 -2.6 0 -4.2 1.6 -2.3 2.2 0.8 0.3 0.6 0.7 -0.5 1.1 -0.9 0.3 -1.7 0.3 -1.7 -0.2z"/>
  <path d="M414.6 547.9 c-1.4 -1.1 -2.4 -2.5 -2 -3 0.3 -0.5 0 -0.8 -0.8 -0.7 -1.1 0.2 -1.3 -6.2 -1.6 -34.1 l-0.2 -34.5 2.7 -2.8 c1.5 -1.5 3.4 -2.8 4.2 -2.7 1.2 0 1 0.3 -0.4 0.9 -1.8 0.8 -1.7 0.9 0.8 0.9 1.5 0.1 2.7 -0.4 2.7 -1.1 0 -0.9 0.4 -0.8 1 0.2 0.6 1 1 1.1 1 0.3 0 -0.7 0.5 -1.3 1.1 -1.3 0.5 0 0.8 0.4 0.4 0.9 -0.3 0.5 0.7 1.1 2.2 1.3 1.7 0.2 2.7 0.8 2.5 1.6 -0.1 0.8 0.2 1.1 0.8 0.7 2.3 -1.4 2.8 5.6 2.7 36.7 l-0.2 32.8 -2.9 2.7 c-1.6 1.6 -2.6 2.3 -2.2 1.7 0.3 -0.7 -0.1 -1.4 -0.8 -1.7 -1 -0.4 -1.3 0 -1.1 1.4 0.3 1.6 -0.2 1.9 -3.4 1.9 -2.4 0 -4.8 -0.8 -6.5 -2.1z"/>
  <path d="M591.2 535.8 c-1.6 -1.9 -2 -3.4 -1.9 -8 0.1 -3.1 -0.1 -5.4 -0.5 -5.1 -0.5 0.2 -0.8 -0.1 -0.8 -0.6 0 -0.6 0.4 -1.1 0.9 -1.1 0.4 0 0.5 -1.8 0.1 -4 -0.4 -2.2 -0.5 -4 -0.1 -4 0.7 0 0.5 -9.2 -0.3 -15.9 -0.7 -5 0.3 -12.3 1.5 -11.6 0.4 0.3 1 0.1 1.4 -0.5 0.3 -0.5 0 -1 -0.7 -1 -2.7 0 2.9 -3.9 6.2 -4.4 5.3 -0.6 9.8 1.7 11.5 5.8 0.8 2 1.5 4.1 1.4 4.8 0 0.7 -0.4 0.4 -0.9 -0.7 -0.5 -1.2 -0.8 6.9 -0.8 20 0.1 13.1 0.4 19.6 0.8 16 l0.7 -6 0.1 5.7 c0.1 3.1 -0.3 6 -0.8 6.3 -0.6 0.4 -0.8 1 -0.5 1.5 0.7 1.2 -3.5 5 -5.4 4.9 -1.2 0 -1 -0.3 0.4 -0.9 1.4 -0.6 0.4 -0.8 -3.2 -0.7 -2.8 0.1 -4.9 0.5 -4.6 1 1 1.7 -2.5 0.5 -4.5 -1.5z"/>
 </g>
</svg>